<svg width="24" height="25" viewBox="0 0 24 25" fill="none" xmlns="http://www.w3.org/2000/svg">
<path d="M5 21.6875C4.45 21.6875 3.979 21.4918 3.587 21.1005C3.19567 20.7085 3 20.2375 3 19.6875V5.6875C3 5.1375 3.19567 4.6665 3.587 4.2745C3.979 3.88317 4.45 3.6875 5 3.6875H9.2C9.41667 3.0875 9.77933 2.60417 10.288 2.2375C10.796 1.87083 11.3667 1.6875 12 1.6875C12.6333 1.6875 13.2043 1.87083 13.713 2.2375C14.221 2.60417 14.5833 3.0875 14.8 3.6875H19C19.55 3.6875 20.021 3.88317 20.413 4.2745C20.8043 4.6665 21 5.1375 21 5.6875V19.6875C21 20.2375 20.8043 20.7085 20.413 21.1005C20.021 21.4918 19.55 21.6875 19 21.6875H5ZM5 19.6875H19V5.6875H5V19.6875ZM7 17.6875H14V15.6875H7V17.6875ZM7 13.6875H17V11.6875H7V13.6875ZM7 9.6875H17V7.6875H7V9.6875ZM12 4.9375C12.2167 4.9375 12.396 4.8665 12.538 4.7245C12.6793 4.58317 12.75 4.40417 12.75 4.1875C12.75 3.97083 12.6793 3.7915 12.538 3.6495C12.396 3.50817 12.2167 3.4375 12 3.4375C11.7833 3.4375 11.6043 3.50817 11.463 3.6495C11.321 3.7915 11.25 3.97083 11.25 4.1875C11.25 4.40417 11.321 4.58317 11.463 4.7245C11.6043 4.8665 11.7833 4.9375 12 4.9375Z" fill="white"/>
</svg>
