<svg width="24" height="24" viewBox="0 0 24 24" fill="none" xmlns="http://www.w3.org/2000/svg">
    <path d="M5.4 19.6C4.65 18.85 4.06267 17.9833 3.638 17C3.21267 16.0167 3 15 3 13.95C3 12.9 3.2 11.8623 3.6 10.837C4 9.81233 4.65 8.85 5.55 7.95C6.13333 7.36666 6.85433 6.86666 7.713 6.45C8.571 6.03333 9.58733 5.704 10.762 5.462C11.9373 5.22066 13.2793 5.075 14.788 5.025C16.296 4.975 17.9833 5.03333 19.85 5.2C19.9833 6.96666 20.025 8.59166 19.975 10.075C19.925 11.5583 19.7873 12.8957 19.562 14.087C19.3373 15.279 19.021 16.3207 18.613 17.212C18.2043 18.104 17.7 18.85 17.1 19.45C16.2167 20.3333 15.2793 20.979 14.288 21.387C13.296 21.7957 12.2833 22 11.25 22C10.1667 22 9.10833 21.7877 8.075 21.363C7.04167 20.9377 6.15 20.35 5.4 19.6ZM8.2 19.2C8.68333 19.4833 9.17933 19.6873 9.688 19.812C10.196 19.9373 10.7167 20 11.25 20C12.0167 20 12.775 19.846 13.525 19.538C14.275 19.2293 14.9917 18.7333 15.675 18.05C15.975 17.75 16.279 17.3293 16.587 16.788C16.8957 16.246 17.1627 15.5373 17.388 14.662C17.6127 13.7873 17.7833 12.7293 17.9 11.488C18.0167 10.246 18.0333 8.76666 17.95 7.05C17.1333 7.01666 16.2127 7.004 15.188 7.012C14.1627 7.02066 13.1417 7.1 12.125 7.25C11.1083 7.4 10.1417 7.64166 9.225 7.975C8.30833 8.30833 7.55833 8.76667 6.975 9.35C6.225 10.1 5.70833 10.8417 5.425 11.575C5.14167 12.3083 5 13.0167 5 13.7C5 14.6833 5.18733 15.5457 5.562 16.287C5.93733 17.029 6.26667 17.55 6.55 17.85C7.25 16.5167 8.175 15.2373 9.325 14.012C10.475 12.7873 11.8167 11.7833 13.35 11C12.15 12.05 11.1043 13.2373 10.213 14.562C9.321 15.8873 8.65 17.4333 8.2 19.2Z" fill="#003C49"/>
</svg>
