<svg width="24" height="24" viewBox="0 0 24 24" fill="none" xmlns="http://www.w3.org/2000/svg">
    <path d="M12 12.95V3.95C12 3.66666 12.096 3.429 12.288 3.237C12.4793 3.04566 12.7167 2.95 13 2.95H20C20.2833 2.95 20.5207 3.04566 20.712 3.237C20.904 3.429 21 3.66666 21 3.95V8.95C21 9.23333 20.904 9.47066 20.712 9.662C20.5207 9.854 20.2833 9.95 20 9.95H15L12 12.95ZM14 7.95H19V4.95H14V7.95ZM19.95 21C17.8 21 15.7043 20.5207 13.663 19.562C11.621 18.604 9.81267 17.3373 8.238 15.762C6.66267 14.1873 5.396 12.379 4.438 10.337C3.47933 8.29566 3 6.2 3 4.05C3 3.75 3.1 3.5 3.3 3.3C3.5 3.1 3.75 3 4.05 3H8.1C8.33333 3 8.54167 3.075 8.725 3.225C8.90833 3.375 9.01667 3.56666 9.05 3.8L9.7 7.3C9.73333 7.53333 9.72933 7.74566 9.688 7.937C9.646 8.129 9.55 8.3 9.4 8.45L7 10.9C7.7 12.1 8.575 13.225 9.625 14.275C10.675 15.325 11.8333 16.2333 13.1 17L15.45 14.65C15.6 14.5 15.796 14.3873 16.038 14.312C16.2793 14.2373 16.5167 14.2167 16.75 14.25L20.2 14.95C20.4333 15 20.625 15.1123 20.775 15.287C20.925 15.4623 21 15.6667 21 15.9V19.95C21 20.25 20.9 20.5 20.7 20.7C20.5 20.9 20.25 21 19.95 21ZM6.05 9L7.7 7.35L7.25 5H5.05C5.13333 5.68333 5.25 6.35833 5.4 7.025C5.55 7.69166 5.76667 8.35 6.05 9ZM19 18.95V16.75L16.65 16.25L15 17.9C15.65 18.1833 16.3083 18.4167 16.975 18.6C17.6417 18.7833 18.3167 18.9 19 18.95Z" fill="#003C49"/>
</svg>
