<svg width="24" height="24" viewBox="0 0 24 24" fill="none" xmlns="http://www.w3.org/2000/svg">
    <path d="M6 22C5.45 22 4.97933 21.8043 4.588 21.413C4.196 21.021 4 20.55 4 20V4C4 3.45 4.196 2.979 4.588 2.587C4.97933 2.19567 5.45 2 6 2H14L20 8V20C20 20.55 19.8043 21.021 19.413 21.413C19.021 21.8043 18.55 22 18 22H6ZM11 19V18H9V16H13V15H10C9.71667 15 9.47933 14.904 9.288 14.712C9.096 14.5207 9 14.2833 9 14V11C9 10.7167 9.096 10.479 9.288 10.287C9.47933 10.0957 9.71667 10 10 10H11V9H13V10H15V12H11V13H14C14.2833 13 14.521 13.0957 14.713 13.287C14.9043 13.479 15 13.7167 15 14V17C15 17.2833 14.9043 17.5207 14.713 17.712C14.521 17.904 14.2833 18 14 18H13V19H11ZM13 8V4H6V20H18V8H13Z" fill="#003C49"/>
</svg>
