<svg width="24" height="24" viewBox="0 0 24 24" fill="none" xmlns="http://www.w3.org/2000/svg">
    <path d="M16 11C16.2833 11 16.5207 10.904 16.712 10.712C16.904 10.5207 17 10.2833 17 10C17 9.71667 16.904 9.479 16.712 9.287C16.5207 9.09567 16.2833 9 16 9C15.7167 9 15.4793 9.09567 15.288 9.287C15.096 9.479 15 9.71667 15 10C15 10.2833 15.096 10.5207 15.288 10.712C15.4793 10.904 15.7167 11 16 11ZM8 9H13V7H8V9ZM4.5 21C4 19.35 3.59167 17.9333 3.275 16.75C2.95833 15.5667 2.70433 14.5373 2.513 13.662C2.321 12.7873 2.18733 12.025 2.112 11.375C2.03733 10.725 2 10.1 2 9.5C2 7.96667 2.53333 6.66667 3.6 5.6C4.66667 4.53333 5.96667 4 7.5 4H12.5C12.95 3.4 13.521 2.91667 14.213 2.55C14.9043 2.18333 15.6667 2 16.5 2C16.9167 2 17.2707 2.146 17.562 2.438C17.854 2.72933 18 3.08333 18 3.5C18 3.6 17.9873 3.7 17.962 3.8C17.9373 3.9 17.9083 3.99167 17.875 4.075C17.8083 4.25833 17.746 4.44167 17.688 4.625C17.6293 4.80833 17.5833 5.00833 17.55 5.225L19.825 7.5H22V14.475L19.175 15.4L17.5 21H12V19H10V21H4.5ZM6 19H8V17H14V19H16L17.55 13.85L20 13.025V9.5H19L15.5 6C15.5 5.66667 15.5207 5.34167 15.562 5.025C15.604 4.70833 15.6667 4.4 15.75 4.1C15.2667 4.23333 14.8417 4.46233 14.475 4.787C14.1083 5.11233 13.8417 5.51667 13.675 6H7.5C6.53333 6 5.70833 6.34167 5.025 7.025C4.34167 7.70833 4 8.53333 4 9.5C4 10.1833 4.175 11.354 4.525 13.012C4.875 14.6707 5.36667 16.6667 6 19Z" fill="#003C49"/>
</svg>
