<svg width="24" height="24" viewBox="0 0 24 24" fill="none" xmlns="http://www.w3.org/2000/svg">
<path d="M11 21.9508C9.73333 21.8174 8.55433 21.4718 7.463 20.9138C6.371 20.3551 5.421 19.6298 4.613 18.7378C3.80433 17.8464 3.16667 16.8258 2.7 15.6758C2.23333 14.5258 2 13.3008 2 12.0008C2 10.4841 2.30433 9.08411 2.913 7.80078C3.521 6.51745 4.35 5.41745 5.4 4.50078H3V2.50078H9V8.50078H7V5.77578C6.08333 6.50911 5.354 7.41345 4.812 8.48878C4.27067 9.56345 4 10.7341 4 12.0008C4 14.0508 4.671 15.8214 6.013 17.3128C7.35433 18.8048 9.01667 19.6758 11 19.9258V21.9508ZM10.575 16.6008L6.35 12.3508L7.75 10.9508L10.575 13.7758L16.25 8.10078L17.65 9.52578L10.575 16.6008ZM15 21.5008V15.5008H17V18.2258C17.9167 17.4758 18.646 16.5674 19.188 15.5008C19.7293 14.4341 20 13.2674 20 12.0008C20 9.95078 19.3293 8.17978 17.988 6.68778C16.646 5.19645 14.9833 4.32578 13 4.07578V2.05078C15.5333 2.30078 17.6667 3.36745 19.4 5.25078C21.1333 7.13411 22 9.38411 22 12.0008C22 13.5174 21.6957 14.9174 21.087 16.2008C20.479 17.4841 19.65 18.5841 18.6 19.5008H21V21.5008H15Z" fill="#003C49"/>
</svg>
