<svg width="14" height="14" viewBox="0 0 14 14" fill="none" xmlns="http://www.w3.org/2000/svg">
<path d="M12.25 6.40207V4.66666C12.25 4.35724 12.1271 4.06049 11.9083 3.8417C11.6895 3.62291 11.3927 3.49999 11.0833 3.49999H7.58333V2.73466C7.76125 2.57482 7.875 2.34499 7.875 2.08716C7.875 1.85509 7.78281 1.63253 7.61872 1.46844C7.45462 1.30435 7.23206 1.21216 7 1.21216C6.76793 1.21216 6.54537 1.30435 6.38128 1.46844C6.21718 1.63253 6.125 1.85509 6.125 2.08716C6.125 2.34499 6.23875 2.57482 6.41666 2.73466V3.49999H2.91666C2.60724 3.49999 2.3105 3.62291 2.09171 3.8417C1.87291 4.06049 1.75 4.35724 1.75 4.66666V6.41549L1.708 6.41841C1.56093 6.42889 1.4233 6.49472 1.32285 6.60264C1.2224 6.71057 1.16659 6.85255 1.16666 6.99999V8.16666C1.16666 8.32137 1.22812 8.46974 1.33752 8.57914C1.44691 8.68853 1.59529 8.74999 1.75 8.74999V11.6667C1.75 11.9761 1.87291 12.2728 2.09171 12.4916C2.3105 12.7104 2.60724 12.8333 2.91666 12.8333H11.0833C11.3927 12.8333 11.6895 12.7104 11.9083 12.4916C12.1271 12.2728 12.25 11.9761 12.25 11.6667V8.74999C12.4047 8.74999 12.5531 8.68853 12.6625 8.57914C12.7719 8.46974 12.8333 8.32137 12.8333 8.16666V7.03616C12.8401 6.94563 12.8257 6.85476 12.7913 6.77074C12.6735 6.48607 12.4209 6.41782 12.25 6.40207ZM4.08333 6.99999C4.08333 6.35599 4.47533 5.83332 4.95833 5.83332C5.44133 5.83332 5.83333 6.35599 5.83333 6.99999C5.83333 7.64399 5.44133 8.16666 4.95833 8.16666C4.47533 8.16666 4.08333 7.64399 4.08333 6.99999ZM9.33216 10.5C8.74825 10.4982 4.66666 10.5 4.66666 10.5V9.33332C4.66666 9.33332 8.75058 9.33216 9.3345 9.33332L9.33216 10.5ZM9.04166 8.16666C8.55866 8.16666 8.16666 7.64399 8.16666 6.99999C8.16666 6.35599 8.55866 5.83332 9.04166 5.83332C9.52466 5.83332 9.91666 6.35599 9.91666 6.99999C9.91666 7.64399 9.52466 8.16666 9.04166 8.16666Z" fill="black"/>
</svg>
