<svg width="24" height="24" viewBox="0 0 24 24" fill="none" xmlns="http://www.w3.org/2000/svg">
<path d="M4.00912 8.19181C4.0701 7.39835 4.43352 6.63108 5.0325 6.03129C6.28396 4.77822 8.191 4.64892 9.28361 5.74296L16.6267 13.0957C16.9637 13.4331 17.1493 13.8818 17.1493 14.359C17.1493 14.8362 16.9637 15.2849 16.6267 15.6223C16.2897 15.9598 15.8416 16.1456 15.365 16.1456C14.8884 16.1456 14.4404 15.9598 14.1034 15.6223L6.76026 8.26958C6.62011 8.12924 6.62011 7.90169 6.76026 7.76132C6.90045 7.62098 7.12764 7.62098 7.26786 7.76132L14.6109 15.1141C14.8124 15.3158 15.0802 15.4269 15.365 15.4269C15.6499 15.4269 15.9177 15.3158 16.1191 15.1141C16.3205 14.9124 16.4315 14.6443 16.4315 14.359C16.4315 14.0737 16.3205 13.8056 16.1191 13.604L8.77602 6.25119C7.96328 5.43735 6.51165 5.56672 5.54006 6.53951C5.06218 7.01806 4.77262 7.62439 4.72481 8.24694C4.67858 8.84864 4.86586 9.39302 5.25208 9.77974L7.84376 12.3749L12.5952 17.1325C13.335 17.8733 14.3187 18.2813 15.365 18.2813C16.4114 18.2813 17.395 17.8733 18.1349 17.1325C18.8747 16.3917 19.2822 15.4068 19.2822 14.359C19.2822 13.3114 18.8747 12.3263 18.1349 11.5855L12.3756 5.81868C12.2354 5.67835 12.2354 5.45079 12.3756 5.31042C12.5157 5.17008 12.743 5.17008 12.8831 5.31042L18.6425 11.0773C19.5179 11.9539 20 13.1193 20 14.359C20 15.5987 19.5179 16.7641 18.6424 17.6407C17.767 18.5173 16.6031 19 15.365 19C14.127 19 12.9631 18.5172 12.0876 17.6407L7.3362 12.883L4.74451 10.2879C4.20774 9.75053 3.94653 9.00608 4.00912 8.19181Z" fill="#4A4A4A" stroke="#4A4A4A" stroke-width="0.5"/>
</svg>
