<svg width="24" height="24" viewBox="0 0 24 24" fill="none" xmlns="http://www.w3.org/2000/svg">
<path d="M7.03688 11.5C6.85774 11.5 6.68687 11.5754 6.56608 11.7077C6.4453 11.84 6.38575 12.017 6.40201 12.1954C6.6402 14.8079 8.5694 17.025 11.5 17.025C14.4306 17.025 16.3598 14.8079 16.598 12.1954C16.6143 12.017 16.5548 11.84 16.434 11.7077C16.3132 11.5754 16.1424 11.5 15.9632 11.5H7.03688ZM11.5 15.75C9.58143 15.75 8.20924 14.4924 7.78751 12.775H15.2125C14.7908 14.4924 13.4185 15.75 11.5 15.75Z" fill="#4A4A4A"/>
<path d="M14.2626 8.7375C13.9154 8.7375 13.6588 8.98161 13.6182 9.25585C13.5667 9.60414 13.2425 9.84471 12.8943 9.79313C12.5459 9.74157 12.3054 9.41744 12.357 9.06915C12.4942 8.14208 13.3116 7.4625 14.2626 7.4625C15.2136 7.4625 16.031 8.14208 16.1682 9.06915C16.2198 9.41744 15.9792 9.74157 15.6309 9.79313C15.2827 9.84471 14.9585 9.60414 14.907 9.25585C14.8663 8.98161 14.6098 8.7375 14.2626 8.7375Z" fill="#4A4A4A"/>
<path d="M8.09322 9.25585C8.13381 8.98161 8.39034 8.7375 8.73759 8.7375C9.08484 8.7375 9.34137 8.98161 9.38195 9.25585C9.43351 9.60414 9.75765 9.84471 10.1059 9.79313C10.4542 9.74157 10.6948 9.41744 10.6432 9.06915C10.506 8.14208 9.68858 7.4625 8.73759 7.4625C7.78659 7.4625 6.96919 8.14208 6.83195 9.06915C6.7804 9.41744 7.02095 9.74157 7.36924 9.79313C7.71753 9.84471 8.04166 9.60414 8.09322 9.25585Z" fill="#4A4A4A"/>
<path d="M11.5 3C6.80558 3 3 6.80558 3 11.5C3 16.1944 6.80558 20 11.5 20C16.1944 20 20 16.1944 20 11.5C20 6.80558 16.1944 3 11.5 3ZM4.275 11.5C4.275 7.50974 7.50974 4.275 11.5 4.275C15.4902 4.275 18.725 7.50974 18.725 11.5C18.725 15.4902 15.4902 18.725 11.5 18.725C7.50974 18.725 4.275 15.4902 4.275 11.5Z" fill="#4A4A4A"/>
</svg>
