<svg width="24" height="24" viewBox="0 0 24 24" fill="none" xmlns="http://www.w3.org/2000/svg">
<path fill-rule="evenodd" clip-rule="evenodd" d="M21.6 9V7.2C21.6 6.53726 21.0628 6 20.4 6H3.60002C2.93729 6 2.40002 6.53726 2.40002 7.2V9C2.40002 9.33137 2.66866 9.6 3.00002 9.6C4.32551 9.6 5.40002 10.6745 5.40002 12C5.40002 13.3255 4.32551 14.4 3.00002 14.4C2.66866 14.4 2.40002 14.6687 2.40002 15V16.8C2.40002 17.4628 2.93729 18 3.60002 18H20.4C21.0628 18 21.6 17.4628 21.6 16.8V15C21.6 14.6687 21.3313 14.4 21 14.4C19.6745 14.4 18.6 13.3255 18.6 12C18.6 10.6745 19.6745 9.6 21 9.6C21.3313 9.6 21.6 9.33137 21.6 9ZM14.2192 9.02811C14.4581 8.7892 14.8454 8.7892 15.0844 9.02811C15.3233 9.26702 15.3233 9.65437 15.0844 9.89328L12.9214 12.0562L15.0843 14.2191C15.3233 14.4581 15.3233 14.8454 15.0843 15.0843C14.8454 15.3232 14.4581 15.3232 14.2192 15.0843L12.0562 12.9214L9.89331 15.0843C9.6544 15.3232 9.26705 15.3232 9.02814 15.0843C8.78923 14.8454 8.78923 14.4581 9.02814 14.2191L11.1911 12.0562L9.02813 9.89328C8.78922 9.65437 8.78922 9.26702 9.02814 9.02811C9.26705 8.7892 9.6544 8.7892 9.89331 9.02811L12.0562 11.191L14.2192 9.02811Z" fill="black"/>
</svg>
