<svg width="24" height="24" viewBox="0 0 24 24" fill="none" xmlns="http://www.w3.org/2000/svg">
<path d="M22 3H2C0.895 3 0 3.895 0 5V19C0 20.105 0.895 21 2 21H22C23.105 21 23.99 20.105 23.99 19L24 5C24 3.895 23.105 3 22 3ZM8 6C9.655 6 11 7.345 11 9C11 10.66 9.655 12 8 12C6.345 12 5 10.66 5 9C5 7.345 6.345 6 8 6ZM14 18H2V17C2 15 6 13.9 8 13.9C10 13.9 14 15 14 17V18ZM17.85 14H19.49L21 16L19.005 17.995C17.7 17.015 16.725 15.62 16.275 14C16.1 13.36 16 12.695 16 12C16 11.305 16.1 10.64 16.28 10C16.725 8.38 17.7 6.985 19.01 6.005L21 8L19.49 10H17.85C17.63 10.625 17.5 11.3 17.5 12C17.5 12.7 17.625 13.375 17.85 14Z" fill="white"/>
</svg>
