<svg width="24" height="24" viewBox="0 0 24 24" fill="none" xmlns="http://www.w3.org/2000/svg">
<path fill-rule="evenodd" clip-rule="evenodd" d="M9.75 18.3652V18.0037C9.75 16.7617 10.758 15.7537 12 15.7537C13.242 15.7537 14.25 16.7617 14.25 18.0037V18.3652C16.8705 17.4382 18.75 14.937 18.75 12C18.75 8.27475 15.7253 5.25 12 5.25C8.27475 5.25 5.25 8.27475 5.25 12C5.25 14.937 7.1295 17.4382 9.75 18.3652ZM13.6852 13.5C13.2727 13.959 12.6757 14.2477 12.0112 14.2477C11.3415 14.2477 10.74 13.9538 10.3275 13.4888C10.053 13.179 9.57825 13.1505 9.2685 13.425C8.95875 13.7002 8.93025 14.1743 9.20475 14.484C9.8925 15.2587 10.8952 15.7477 12.0112 15.7477C13.1182 15.7477 14.1142 15.267 14.8005 14.5028C15.0772 14.1952 15.0518 13.7205 14.7443 13.4437C14.436 13.167 13.962 13.1925 13.6852 13.5Z" fill="black"/>
<path fill-rule="evenodd" clip-rule="evenodd" d="M2.49599 9.81826C1.49324 10.0425 0.742493 10.9388 0.742493 12.009C0.742493 13.2488 1.74899 14.2545 2.98799 14.2545C4.22774 14.2545 5.23349 13.2488 5.23349 12.009C5.23349 11.1315 4.72874 10.371 3.99449 10.002C4.88849 6.41926 8.13599 3.76276 12 3.76276C15.8602 3.76276 19.1047 6.41476 20.0032 9.99151C19.257 10.356 18.7425 11.1233 18.7425 12.009C18.7425 12.8933 19.2547 13.6583 19.998 14.025C19.995 14.037 19.9912 14.0498 19.9882 14.0618C19.1302 17.3753 16.2547 19.8818 12.75 20.1983V18.0038C12.75 17.5898 12.414 17.2538 12 17.2538C11.586 17.2538 11.25 17.5898 11.25 18.0038V20.9963C11.25 21.4103 11.586 21.7463 12 21.7463C12.0525 21.7463 12.1042 21.741 12.1537 21.7305C16.623 21.6615 20.3662 18.5835 21.4402 14.4383C21.4612 14.358 21.4807 14.277 21.4995 14.196C22.4925 13.9643 23.2335 13.0725 23.2335 12.009C23.2335 10.9478 22.4955 10.0575 21.5055 9.82426C20.5155 5.49676 16.6335 2.26276 12 2.26276C7.36874 2.26276 3.48824 5.49376 2.49599 9.81826Z" fill="black"/>
</svg>
