<svg width="24" height="24" viewBox="0 0 24 24" fill="none" xmlns="http://www.w3.org/2000/svg">
<path d="M5.5 22C5.1 22 4.75 21.85 4.45 21.55C4.15 21.25 4 20.9 4 20.5V3.5C4 3.1 4.15 2.75 4.45 2.45C4.75 2.15 5.1 2 5.5 2H14L20 8V11.9H18.5V9H13V3.5H5.5V20.5H13V22H5.5ZM5.5 20.5V3.5V20.5ZM18.9 14.925L19.6 15.625L15.5 19.725V21H16.775L20.875 16.9L21.575 17.6L17.175 22H14.5V19.325L18.9 14.925ZM21.575 17.6L18.9 14.925L20.425 13.4C20.575 13.25 20.75 13.175 20.95 13.175C21.15 13.175 21.325 13.25 21.475 13.4L23.1 15.025C23.25 15.175 23.325 15.35 23.325 15.55C23.325 15.75 23.25 15.925 23.1 16.075L21.575 17.6Z" fill="#5C76D5"/>
<path d="M8 7H12" stroke="#5C76D5" stroke-linecap="round"/>
<path d="M10 5V9" stroke="#5C76D5" stroke-linecap="round"/>
<path d="M8 13H17.3333" stroke="#5C76D5" stroke-linecap="round"/>
<path d="M8 15.7461H14" stroke="#5C76D5" stroke-linecap="round"/>
</svg>
