<svg width="24" height="24" viewBox="0 0 24 24" fill="none" xmlns="http://www.w3.org/2000/svg">
<path d="M21.3616 3.95091C21.5134 4.31698 21.4509 4.62948 21.1741 4.88841L14.5714 11.4911V21.4286C14.5714 21.8036 14.3973 22.067 14.0491 22.2188C13.933 22.2634 13.8214 22.2857 13.7143 22.2857C13.4732 22.2857 13.2723 22.2009 13.1116 22.0313L9.68303 18.6027C9.51339 18.4331 9.42857 18.2322 9.42857 18V11.4911L2.82589 4.88841C2.5491 4.62948 2.4866 4.31698 2.63839 3.95091C2.79018 3.6027 3.05357 3.42859 3.42857 3.42859H20.5714C20.9464 3.42859 21.2098 3.6027 21.3616 3.95091Z" fill="black"/>
</svg>
