<svg width="24" height="24" viewBox="0 0 24 24" fill="none" xmlns="http://www.w3.org/2000/svg">
<path fill-rule="evenodd" clip-rule="evenodd" d="M7.50485 10C6.67718 10 6 10.675 6 11.5C6 12.325 6.67718 13 7.50485 13C8.33252 13 9.00971 12.325 9.00971 11.5C9.00971 10.675 8.33252 10 7.50485 10ZM16.534 10C15.7063 10 15.0292 10.675 15.0292 11.5C15.0292 12.325 15.7063 13 16.534 13C17.3617 13 18.0389 12.325 18.0389 11.5C18.0389 10.675 17.3617 10 16.534 10ZM12.0194 10C11.1918 10 10.5146 10.675 10.5146 11.5C10.5146 12.325 11.1918 13 12.0194 13C12.8471 13 13.5243 12.325 13.5243 11.5C13.5243 10.675 12.8471 10 12.0194 10Z" fill="black"/>
</svg>
