<svg width="24" height="24" viewBox="0 0 24 24" fill="none" xmlns="http://www.w3.org/2000/svg">
    <path d="M19.5 11.9997C19.5 12.8457 19.359 13.6602 19.101 14.4192L17.88 13.1982C17.9599 12.8037 18.0001 12.4022 18 11.9997V10.4997C18 10.3008 18.079 10.11 18.2197 9.96938C18.3603 9.82873 18.5511 9.74971 18.75 9.74971C18.9489 9.74971 19.1397 9.82873 19.2803 9.96938C19.421 10.11 19.5 10.3008 19.5 10.4997V11.9997ZM12 17.9997C13.227 17.9997 14.367 17.6322 15.318 16.9992L16.395 18.0777C15.3242 18.8542 14.0663 19.332 12.75 19.4622V22.4997H17.25C17.4489 22.4997 17.6397 22.5787 17.7803 22.7194C17.921 22.86 18 23.0508 18 23.2497C18 23.4486 17.921 23.6394 17.7803 23.78C17.6397 23.9207 17.4489 23.9997 17.25 23.9997H6.75C6.55109 23.9997 6.36032 23.9207 6.21967 23.78C6.07902 23.6394 6 23.4486 6 23.2497C6 23.0508 6.07902 22.86 6.21967 22.7194C6.36032 22.5787 6.55109 22.4997 6.75 22.4997H11.25V19.4622C9.40003 19.2763 7.68506 18.4098 6.43782 17.0309C5.19058 15.652 4.49998 13.859 4.5 11.9997V10.4997C4.5 10.3008 4.57902 10.11 4.71967 9.96938C4.86032 9.82873 5.05109 9.74971 5.25 9.74971C5.44891 9.74971 5.63968 9.82873 5.78033 9.96938C5.92098 10.11 6 10.3008 6 10.4997V11.9997C6 13.591 6.63214 15.1171 7.75736 16.2424C8.88258 17.3676 10.4087 17.9997 12 17.9997ZM16.5 4.49971V11.8182L7.737 3.05521C8.08041 2.04607 8.7708 1.19155 9.68525 0.643763C10.5997 0.095977 11.6789 -0.10952 12.7307 0.0638556C13.7824 0.237231 14.7386 0.778228 15.4288 1.59053C16.1191 2.40284 16.4986 3.43374 16.5 4.49971Z" fill="white"/>
    <path d="M14.229 15.9103L7.49999 9.17975V11.9998C7.49976 12.7877 7.70644 13.5619 8.09936 14.245C8.49227 14.928 9.05765 15.4959 9.73894 15.8918C10.4202 16.2877 11.1935 16.4978 11.9815 16.501C12.7695 16.5043 13.5445 16.3006 14.229 15.9103ZM2.46899 2.03075L20.469 20.0308L21.531 18.9688L3.53099 0.96875L2.46899 2.03075Z" fill="white"/>
</svg>
