<svg width="12" height="12" viewBox="0 0 12 12" fill="none" xmlns="http://www.w3.org/2000/svg">
<path fill-rule="evenodd" clip-rule="evenodd" d="M7.60636 7.2775C6.28555 6.84755 4.85339 6.85064 3.52948 7.27751L3.52948 8.63853C3.52948 8.80556 3.43359 8.95713 3.28821 9.02827C2.82732 9.26027 2.39117 9.57268 2.00761 9.95624C1.83749 10.1264 1.55909 10.1264 1.38897 9.95624L0.309429 8.87671C0.139301 8.70658 0.139301 8.42819 0.309429 8.25806C3.21397 5.35351 7.92187 5.35351 10.8264 8.25806C10.9965 8.42819 10.9965 8.70658 10.8264 8.87671L9.74379 9.95934C9.57366 10.1295 9.29527 10.1295 9.12514 9.95934C8.73849 9.57268 8.30543 9.26336 7.84454 9.03137C7.70225 8.95713 7.60636 8.81175 7.60636 8.63853L7.60636 7.2775Z" fill="#C13333"/>
<path d="M7.60694 2L5.5 4.18483L3.94861 2.57609H5.22222V2H3V4.30437H3.55556V2.98368L5.5 5L8 2.40759L7.60694 2Z" fill="#C13333"/>
</svg>
