<svg width="24" height="24" viewBox="0 0 24 24" fill="none" xmlns="http://www.w3.org/2000/svg">
<path d="M10.5 20.4281V3.56719C10.5 3.25312 10.2469 3 9.92813 3H6.57187C6.25312 3 6 3.25312 6 3.56719V20.4281C6 20.7422 6.25312 21 6.57187 21H9.92813C10.2469 21 10.5 20.7469 10.5 20.4281Z" fill="white"/>
<path d="M17.4281 3H14.0719C13.7578 3 13.5 3.25312 13.5 3.56719V20.4281C13.5 20.7422 13.7531 21 14.0719 21H17.4281C17.7422 21 18 20.7469 18 20.4281V3.56719C18 3.25312 17.7469 3 17.4281 3Z" fill="white"/>
</svg>
