<svg width="14" height="14" viewBox="0 0 14 14" fill="none" xmlns="http://www.w3.org/2000/svg">
<path d="M9.09563 1.76586C8.56352 1.19137 7.82032 0.875 7 0.875C6.17532 0.875 5.42965 1.18945 4.9 1.76039C4.36461 2.33762 4.10375 3.12211 4.165 3.96922C4.28641 5.64047 5.55817 7 7 7C8.44184 7 9.71141 5.64074 9.83473 3.96977C9.8968 3.13031 9.6343 2.34746 9.09563 1.76586Z" fill="black"/>
<path d="M11.8125 13.125H2.1875C2.06152 13.1266 1.93676 13.1002 1.82229 13.0475C1.70782 12.9949 1.60653 12.9174 1.52579 12.8207C1.34805 12.6082 1.27641 12.3181 1.32946 12.0247C1.56024 10.7445 2.28047 9.66902 3.4125 8.91406C4.41821 8.24387 5.69215 7.875 7 7.875C8.30786 7.875 9.5818 8.24414 10.5875 8.91406C11.7195 9.66875 12.4398 10.7442 12.6706 12.0244C12.7236 12.3178 12.652 12.6079 12.4742 12.8204C12.3935 12.9172 12.2922 12.9947 12.1778 13.0474C12.0633 13.1001 11.9385 13.1266 11.8125 13.125Z" fill="black"/>
</svg>
