<svg width="24" height="24" viewBox="0 0 24 24" fill="none" xmlns="http://www.w3.org/2000/svg">
<path d="M13.75 8.90909C13.75 9.86304 12.9665 10.6364 12 10.6364C11.0335 10.6364 10.25 9.86304 10.25 8.90909C10.25 7.95514 11.0335 7.18182 12 7.18182C12.9665 7.18182 13.75 7.95514 13.75 8.90909Z" fill="white"/>
<path d="M13.75 14.0909C13.75 15.0449 12.9665 15.8182 12 15.8182C11.0335 15.8182 10.25 15.0449 10.25 14.0909C10.25 13.137 11.0335 12.3636 12 12.3636C12.9665 12.3636 13.75 13.137 13.75 14.0909Z" fill="white"/>
<path d="M13.75 19.2727C13.75 20.2267 12.9665 21 12 21C11.0335 21 10.25 20.2267 10.25 19.2727C10.25 18.3188 11.0335 17.5455 12 17.5455C12.9665 17.5455 13.75 18.3188 13.75 19.2727Z" fill="white"/>
<path d="M19 8.90909C19 9.86304 18.2165 10.6364 17.25 10.6364C16.2835 10.6364 15.5 9.86304 15.5 8.90909C15.5 7.95514 16.2835 7.18182 17.25 7.18182C18.2165 7.18182 19 7.95514 19 8.90909Z" fill="white"/>
<path d="M19 14.0909C19 15.0449 18.2165 15.8182 17.25 15.8182C16.2835 15.8182 15.5 15.0449 15.5 14.0909C15.5 13.137 16.2835 12.3636 17.25 12.3636C18.2165 12.3636 19 13.137 19 14.0909Z" fill="white"/>
<path d="M8.5 8.90909C8.5 9.86304 7.7165 10.6364 6.75 10.6364C5.7835 10.6364 5 9.86304 5 8.90909C5 7.95514 5.7835 7.18182 6.75 7.18182C7.7165 7.18182 8.5 7.95514 8.5 8.90909Z" fill="white"/>
<path d="M8.5 14.0909C8.5 15.0449 7.7165 15.8182 6.75 15.8182C5.7835 15.8182 5 15.0449 5 14.0909C5 13.137 5.7835 12.3636 6.75 12.3636C7.7165 12.3636 8.5 13.137 8.5 14.0909Z" fill="white"/>
<path d="M13.75 3.72727C13.75 4.68122 12.9665 5.45455 12 5.45455C11.0335 5.45455 10.25 4.68122 10.25 3.72727C10.25 2.77333 11.0335 2 12 2C12.9665 2 13.75 2.77333 13.75 3.72727Z" fill="white"/>
<path d="M8.5 3.72727C8.5 4.68122 7.7165 5.45455 6.75 5.45455C5.7835 5.45455 5 4.68122 5 3.72727C5 2.77333 5.7835 2 6.75 2C7.7165 2 8.5 2.77333 8.5 3.72727Z" fill="white"/>
<path d="M19 3.72727C19 4.68122 18.2165 5.45455 17.25 5.45455C16.2835 5.45455 15.5 4.68122 15.5 3.72727C15.5 2.77333 16.2835 2 17.25 2C18.2165 2 19 2.77333 19 3.72727Z" fill="white"/>
</svg>
