<svg width="25" height="25" viewBox="0 0 25 25" fill="none" xmlns="http://www.w3.org/2000/svg">
<path fill-rule="evenodd" clip-rule="evenodd" d="M6.62 11.79C8.06 14.62 10.38 16.93 13.21 18.38L15.41 16.18C15.68 15.91 16.08 15.82 16.43 15.94C17.55 16.31 18.76 16.51 20 16.51C20.55 16.51 21 16.96 21 17.51V21C21 21.55 20.55 22 20 22C10.61 22 3 14.39 3 5C3 4.45 3.45 4 4 4H7.5C8.05 4 8.5 4.45 8.5 5C8.5 6.25 8.7 7.45 9.07 8.57C9.18 8.92 9.1 9.31 8.82 9.59L6.62 11.79Z" fill="white"/>
<path d="M17.7211 9.07129L20.4711 6.82129L17.7211 4.57129V6.25823L10.5711 6.25823V7.38323L17.7211 7.38323V9.07129ZM21.5711 10.7588H14.4211V9.07129L11.6711 11.3213L14.4211 13.5713V11.8838H21.5711V10.7588Z" fill="white"/>
</svg>
