<svg width="24" height="24" viewBox="0 0 24 24" fill="none" xmlns="http://www.w3.org/2000/svg">
    <path fill-rule="evenodd" clip-rule="evenodd" d="M12.7045 14.9545C13.1438 14.5152 13.8562 14.5152 14.2955 14.9545L17.25 17.909L20.2045 14.9545C20.6438 14.5152 21.3562 14.5152 21.7955 14.9545C22.2348 15.3938 22.2348 16.1062 21.7955 16.5455L18.0455 20.2955C17.6062 20.7348 16.8938 20.7348 16.4545 20.2955L12.7045 16.5455C12.2652 16.1062 12.2652 15.3938 12.7045 14.9545Z" fill="black"/>
    <path fill-rule="evenodd" clip-rule="evenodd" d="M17.25 9.375C17.8713 9.375 18.375 9.87868 18.375 10.5V19.5C18.375 20.1213 17.8713 20.625 17.25 20.625C16.6287 20.625 16.125 20.1213 16.125 19.5V10.5C16.125 9.87868 16.6287 9.375 17.25 9.375Z" fill="black"/>
    <path fill-rule="evenodd" clip-rule="evenodd" d="M3.375 12C3.375 11.3787 3.87868 10.875 4.5 10.875H11.25C11.8713 10.875 12.375 11.3787 12.375 12C12.375 12.6213 11.8713 13.125 11.25 13.125H4.5C3.87868 13.125 3.375 12.6213 3.375 12Z" fill="black"/>
    <path fill-rule="evenodd" clip-rule="evenodd" d="M3.375 6C3.375 5.37868 3.87868 4.875 4.5 4.875H17.25C17.8713 4.875 18.375 5.37868 18.375 6C18.375 6.62132 17.8713 7.125 17.25 7.125H4.5C3.87868 7.125 3.375 6.62132 3.375 6Z" fill="black"/>
    <path fill-rule="evenodd" clip-rule="evenodd" d="M3.375 18C3.375 17.3787 3.87868 16.875 4.5 16.875H9.75C10.3713 16.875 10.875 17.3787 10.875 18C10.875 18.6213 10.3713 19.125 9.75 19.125H4.5C3.87868 19.125 3.375 18.6213 3.375 18Z" fill="black"/>
</svg>
