<svg width="24" height="24" viewBox="0 0 24 24" fill="none" xmlns="http://www.w3.org/2000/svg">
    <path d="M22.9772 8.50303L20.9086 6.43444C20.7417 6.26979 20.5192 6.17365 20.2849 6.16498C20.0506 6.1563 19.8216 6.23571 19.643 6.38756C19.3672 6.62228 19.0134 6.74484 18.6515 6.73095C18.2896 6.71706 17.9462 6.56773 17.6892 6.31256C17.4342 6.05563 17.285 5.71229 17.2711 5.35054C17.2572 4.98879 17.3797 4.63501 17.6142 4.35928C17.7661 4.18067 17.8455 3.95164 17.8368 3.71736C17.8282 3.48308 17.732 3.26055 17.5674 3.09366L15.4969 1.02272C15.3219 0.848082 15.0848 0.75 14.8376 0.75C14.5904 0.75 14.3533 0.848082 14.1783 1.02272L10.8807 4.31991C10.6771 4.52423 10.5235 4.77291 10.4321 5.04647C10.4143 5.09906 10.3846 5.14685 10.3453 5.18611C10.306 5.22538 10.2582 5.25507 10.2057 5.27288C9.93198 5.36433 9.68327 5.51805 9.47909 5.72194L1.02284 14.1782C0.848204 14.3532 0.750122 14.5903 0.750122 14.8375C0.750122 15.0847 0.848204 15.3218 1.02284 15.4968L3.09378 17.5654C3.26067 17.73 3.4832 17.8262 3.71748 17.8348C3.95176 17.8435 4.18079 17.7641 4.3594 17.6123C4.63451 17.3756 4.98887 17.2517 5.35147 17.2653C5.71408 17.2789 6.05815 17.4291 6.31473 17.6857C6.57132 17.9423 6.72146 18.2863 6.73507 18.6489C6.74869 19.0115 6.62477 19.3659 6.38815 19.641C6.23631 19.8196 6.15689 20.0486 6.16557 20.2829C6.17424 20.5172 6.27038 20.7397 6.43503 20.9066L8.50362 22.9752C8.6786 23.1499 8.91571 23.2479 9.16292 23.2479C9.41013 23.2479 9.64724 23.1499 9.82222 22.9752L18.2785 14.519C18.4822 14.3149 18.6359 14.0663 18.7275 13.7929C18.7453 13.7401 18.775 13.6922 18.8143 13.6528C18.8537 13.6134 18.9016 13.5837 18.9544 13.566C19.2278 13.4745 19.4763 13.321 19.6805 13.1174L22.9777 9.81975C23.1517 9.64479 23.2493 9.40805 23.2492 9.16129C23.2491 8.91454 23.1513 8.67786 22.9772 8.50303ZM12.2724 7.11319C12.2027 7.18285 12.12 7.23811 12.029 7.27581C11.938 7.31351 11.8405 7.33292 11.742 7.33292C11.6435 7.33292 11.5459 7.31351 11.4549 7.27581C11.3639 7.23811 11.2812 7.18285 11.2116 7.11319L10.6721 6.57366C10.5348 6.4323 10.4587 6.24262 10.4602 6.04561C10.4617 5.8486 10.5406 5.66008 10.68 5.52081C10.8193 5.38153 11.0079 5.30267 11.2049 5.30127C11.4019 5.29988 11.5915 5.37605 11.7328 5.51334L12.2724 6.05241C12.342 6.12205 12.3973 6.20474 12.435 6.29575C12.4727 6.38675 12.4921 6.48429 12.4921 6.5828C12.4921 6.6813 12.4727 6.77884 12.435 6.86985C12.3973 6.96086 12.342 7.04354 12.2724 7.11319ZM14.3349 9.17569C14.1942 9.31623 14.0035 9.39518 13.8047 9.39518C13.6059 9.39518 13.4152 9.31623 13.2746 9.17569L12.7589 8.66006C12.6893 8.59041 12.634 8.50772 12.5963 8.41672C12.5586 8.32571 12.5392 8.22818 12.5392 8.12967C12.5392 8.03117 12.5586 7.93363 12.5963 7.84263C12.634 7.75162 12.6893 7.66893 12.7589 7.59928C12.8996 7.45861 13.0904 7.37959 13.2893 7.37959C13.3878 7.37959 13.4854 7.39899 13.5764 7.43668C13.6674 7.47438 13.7501 7.52963 13.8197 7.59928L14.3353 8.11491C14.4052 8.18455 14.4607 8.2673 14.4986 8.35842C14.5365 8.44954 14.556 8.54723 14.556 8.6459C14.5561 8.74458 14.5366 8.84229 14.4988 8.93344C14.4611 9.02459 14.4057 9.10739 14.3358 9.17709L14.3349 9.17569ZM16.3974 11.2382C16.3277 11.3078 16.245 11.3631 16.154 11.4008C16.063 11.4385 15.9655 11.4579 15.867 11.4579C15.7685 11.4579 15.6709 11.4385 15.5799 11.4008C15.4889 11.3631 15.4062 11.3078 15.3366 11.2382L14.821 10.7226C14.6837 10.5812 14.6076 10.3915 14.6091 10.1945C14.6106 9.9975 14.6896 9.80899 14.8289 9.66971C14.9682 9.53043 15.1568 9.45157 15.3538 9.45018C15.5508 9.44878 15.7404 9.52496 15.8817 9.66225L16.3974 10.1779C16.4675 10.2474 16.5232 10.3301 16.5612 10.4212C16.5993 10.5123 16.619 10.61 16.6192 10.7087C16.6194 10.8074 16.6002 10.9052 16.5625 10.9965C16.5248 11.0878 16.4695 11.1707 16.3997 11.2405L16.3974 11.2382ZM18.48 13.326C18.4104 13.3957 18.3277 13.4509 18.2367 13.4886C18.1457 13.5263 18.0481 13.5457 17.9496 13.5457C17.8511 13.5457 17.7536 13.5263 17.6626 13.4886C17.5716 13.4509 17.4889 13.3957 17.4192 13.326L16.883 12.7869C16.8119 12.7175 16.7553 12.6346 16.7165 12.5431C16.6776 12.4516 16.6574 12.3533 16.6569 12.2539C16.6565 12.1545 16.6758 12.056 16.7137 11.9641C16.7516 11.8722 16.8074 11.7888 16.8779 11.7187C16.9484 11.6486 17.032 11.5931 17.1241 11.5557C17.2162 11.5182 17.3148 11.4994 17.4142 11.5003C17.5136 11.5013 17.6118 11.522 17.7031 11.5612C17.7944 11.6005 17.877 11.6575 17.9461 11.729L18.4828 12.2676C18.5525 12.3372 18.6077 12.42 18.6454 12.511C18.683 12.602 18.7024 12.6995 18.7023 12.7981C18.7023 12.8966 18.6828 12.9941 18.6451 13.0851C18.6074 13.1761 18.5521 13.2587 18.4824 13.3283L18.48 13.326Z" fill="black"/>
</svg>
