<svg width="24" height="24" viewBox="0 0 24 24" fill="none" xmlns="http://www.w3.org/2000/svg">
    <path d="M12 24C5.3736 24 0 18.6264 0 12C0 5.3736 5.3736 0 12 0C18.6264 0 24 5.3736 24 12C24 18.6264 18.6264 24 12 24Z" fill="#25D366"/>
    <path fill-rule="evenodd" clip-rule="evenodd" d="M17.6136 6.41272C16.1256 4.92232 14.1432 4.10152 12.0336 4.09912C7.6872 4.09912 4.1472 7.63672 4.1472 11.9855C4.1472 13.3751 4.5096 14.7335 5.2008 15.9287L4.0824 20.0159L8.2632 18.9191C9.4152 19.5479 10.7112 19.8791 12.0312 19.8791H12.0336C16.38 19.8791 19.9176 16.3415 19.92 11.9927C19.9224 9.88552 19.104 7.90312 17.6136 6.41272ZM12.036 18.5471H12.0336C10.8576 18.5471 9.7032 18.2303 8.6976 17.6327L8.4576 17.4911L5.976 18.1415L6.6384 15.7223L6.4824 15.4751C5.8272 14.4311 5.4792 13.2263 5.4792 11.9855C5.4816 8.37112 8.4216 5.43112 12.0384 5.43112C13.7904 5.43112 15.4344 6.11512 16.6728 7.35352C17.9112 8.59192 18.5928 10.2407 18.5904 11.9903C18.5904 15.6071 15.648 18.5471 12.036 18.5471ZM15.6312 13.6367C15.4344 13.5383 14.4648 13.0607 14.2848 12.9959C14.1048 12.9311 13.9728 12.8975 13.8408 13.0943C13.7088 13.2911 13.332 13.7351 13.2168 13.8671C13.1016 13.9991 12.9864 14.0159 12.7896 13.9175C12.5928 13.8191 11.9568 13.6103 11.2056 12.9383C10.62 12.4151 10.224 11.7695 10.1088 11.5727C9.9936 11.3759 10.0968 11.2679 10.1952 11.1695C10.284 11.0807 10.392 10.9391 10.4904 10.8239C10.5888 10.7087 10.6224 10.6271 10.6872 10.4951C10.752 10.3631 10.7208 10.2479 10.6704 10.1495C10.62 10.0511 10.2264 9.08152 10.0632 8.68552C9.9024 8.30152 9.7416 8.35432 9.6192 8.34712C9.504 8.34232 9.372 8.33992 9.2424 8.33992C9.1104 8.33992 8.8968 8.39032 8.7168 8.58712C8.5368 8.78392 8.028 9.26152 8.028 10.2311C8.028 11.2007 8.7336 12.1391 8.832 12.2687C8.9304 12.4007 10.2216 14.3903 12.1992 15.2447C12.6696 15.4487 13.0368 15.5687 13.3224 15.6599C13.7952 15.8111 14.2248 15.7895 14.5632 15.7391C14.9424 15.6815 15.7296 15.2615 15.8928 14.8031C16.056 14.3423 16.056 13.9487 16.008 13.8671C15.96 13.7855 15.828 13.7375 15.6312 13.6367Z" fill="white"/>
</svg>
